<?xml version="1.0" encoding="UTF-8" standalone="no"?><svg xmlns="http://www.w3.org/2000/svg" xmlns:xlink="http://www.w3.org/1999/xlink" contentScriptType="application/ecmascript" contentStyleType="text/css" height="303px" preserveAspectRatio="none" style="width:299px;height:303px;" version="1.1" viewBox="0 0 299 303" width="299px" zoomAndPan="magnify"><defs><filter height="300%" id="ft2e5ebpqoj9p" width="300%" x="-1" y="-1"><feGaussianBlur result="blurOut" stdDeviation="2.0"/><feColorMatrix in="blurOut" result="blurOut2" type="matrix" values="0 0 0 0 0 0 0 0 0 0 0 0 0 0 0 0 0 0 .4 0"/><feOffset dx="4.0" dy="4.0" in="blurOut2" result="blurOut3"/><feBlend in="SourceGraphic" in2="blurOut3" mode="normal"/></filter></defs><g><!--MD5=[eba25591466ec1cd0f26f0c2ee141ca8]
class HotelRoom--><rect fill="#FEFECE" filter="url(#ft2e5ebpqoj9p)" height="99.2188" id="HotelRoom" style="stroke: #A80036; stroke-width: 1.5;" width="148" x="6" y="193"/><ellipse cx="42.6" cy="209" fill="#ADD1B2" rx="11" ry="11" style="stroke: #A80036; stroke-width: 1.0;"/><path d="M45.5688,214.6406 Q44.9906,214.9375 44.35,215.0781 Q43.7094,215.2344 43.0063,215.2344 Q40.5063,215.2344 39.1781,213.5938 Q37.8656,211.9375 37.8656,208.8125 Q37.8656,205.6875 39.1781,204.0313 Q40.5063,202.375 43.0063,202.375 Q43.7094,202.375 44.35,202.5313 Q45.0063,202.6875 45.5688,202.9844 L45.5688,205.7031 Q44.9438,205.125 44.35,204.8594 Q43.7563,204.5781 43.1313,204.5781 Q41.7875,204.5781 41.1,205.6563 Q40.4125,206.7188 40.4125,208.8125 Q40.4125,210.9063 41.1,211.9844 Q41.7875,213.0469 43.1313,213.0469 Q43.7563,213.0469 44.35,212.7813 Q44.9438,212.5 45.5688,211.9219 L45.5688,214.6406 Z "/><text fill="#000000" font-family="sans-serif" font-size="12" lengthAdjust="spacingAndGlyphs" textLength="68" x="61.4" y="213.1543">HotelRoom</text><line style="stroke: #A80036; stroke-width: 1.5;" x1="7" x2="153" y1="225" y2="225"/><rect fill="none" height="6" style="stroke: #C82930; stroke-width: 1.0;" width="6" x="14" y="233"/><text fill="#000000" font-family="sans-serif" font-size="11" lengthAdjust="spacingAndGlyphs" textLength="45" x="26" y="239.2104">Long: id</text><rect fill="none" height="6" style="stroke: #C82930; stroke-width: 1.0;" width="6" x="14" y="245.8047"/><text fill="#000000" font-family="sans-serif" font-size="11" lengthAdjust="spacingAndGlyphs" textLength="97" x="26" y="252.0151">int: roomNumber</text><rect fill="none" height="6" style="stroke: #C82930; stroke-width: 1.0;" width="6" x="14" y="258.6094"/><text fill="#000000" font-family="sans-serif" font-size="11" lengthAdjust="spacingAndGlyphs" textLength="84" x="26" y="264.8198">int: maxPeople</text><rect fill="none" height="6" style="stroke: #C82930; stroke-width: 1.0;" width="6" x="14" y="271.4141"/><text fill="#000000" font-family="sans-serif" font-size="11" lengthAdjust="spacingAndGlyphs" textLength="122" x="26" y="277.6245">double: pricePerNight</text><line style="stroke: #A80036; stroke-width: 1.5;" x1="7" x2="153" y1="284.2188" y2="284.2188"/><!--MD5=[c6c2aa411a70f0170997fbec83374a43]
class Booking--><rect fill="#FEFECE" filter="url(#ft2e5ebpqoj9p)" height="124.8281" id="Booking" style="stroke: #A80036; stroke-width: 1.5;" width="144" x="87" y="8"/><ellipse cx="129.9" cy="24" fill="#ADD1B2" rx="11" ry="11" style="stroke: #A80036; stroke-width: 1.0;"/><path d="M132.8688,29.6406 Q132.2906,29.9375 131.65,30.0781 Q131.0094,30.2344 130.3063,30.2344 Q127.8063,30.2344 126.4781,28.5938 Q125.1656,26.9375 125.1656,23.8125 Q125.1656,20.6875 126.4781,19.0313 Q127.8063,17.375 130.3063,17.375 Q131.0094,17.375 131.65,17.5313 Q132.3063,17.6875 132.8688,17.9844 L132.8688,20.7031 Q132.2438,20.125 131.65,19.8594 Q131.0563,19.5781 130.4313,19.5781 Q129.0875,19.5781 128.4,20.6563 Q127.7125,21.7188 127.7125,23.8125 Q127.7125,25.9063 128.4,26.9844 Q129.0875,28.0469 130.4313,28.0469 Q131.0563,28.0469 131.65,27.7813 Q132.2438,27.5 132.8688,26.9219 L132.8688,29.6406 Z "/><text fill="#000000" font-family="sans-serif" font-size="12" lengthAdjust="spacingAndGlyphs" textLength="50" x="150.1" y="28.1543">Booking</text><line style="stroke: #A80036; stroke-width: 1.5;" x1="88" x2="230" y1="40" y2="40"/><rect fill="none" height="6" style="stroke: #C82930; stroke-width: 1.0;" width="6" x="95" y="48"/><text fill="#000000" font-family="sans-serif" font-size="11" lengthAdjust="spacingAndGlyphs" textLength="45" x="107" y="54.2104">Long: id</text><rect fill="none" height="6" style="stroke: #C82930; stroke-width: 1.0;" width="6" x="95" y="60.8047"/><text fill="#000000" font-family="sans-serif" font-size="11" lengthAdjust="spacingAndGlyphs" textLength="104" x="107" y="67.0151">Date: bookingDate</text><rect fill="none" height="6" style="stroke: #C82930; stroke-width: 1.0;" width="6" x="95" y="73.6094"/><text fill="#000000" font-family="sans-serif" font-size="11" lengthAdjust="spacingAndGlyphs" textLength="96" x="107" y="79.8198">Date: arrivalDate</text><rect fill="none" height="6" style="stroke: #C82930; stroke-width: 1.0;" width="6" x="95" y="86.4141"/><text fill="#000000" font-family="sans-serif" font-size="11" lengthAdjust="spacingAndGlyphs" textLength="116" x="107" y="92.6245">Date: departureDate</text><rect fill="none" height="6" style="stroke: #C82930; stroke-width: 1.0;" width="6" x="95" y="99.2188"/><text fill="#000000" font-family="sans-serif" font-size="11" lengthAdjust="spacingAndGlyphs" textLength="99" x="107" y="105.4292">HotelRoom: room</text><rect fill="none" height="6" style="stroke: #C82930; stroke-width: 1.0;" width="6" x="95" y="112.0234"/><text fill="#000000" font-family="sans-serif" font-size="11" lengthAdjust="spacingAndGlyphs" textLength="118" x="107" y="118.2339">Customer: customer</text><line style="stroke: #A80036; stroke-width: 1.5;" x1="88" x2="230" y1="124.8281" y2="124.8281"/><!--MD5=[2ce0c9fb7f55b1e256ab28a8ea6b25ec]
class Customer--><rect fill="#FEFECE" filter="url(#ft2e5ebpqoj9p)" height="73.6094" id="Customer" style="stroke: #A80036; stroke-width: 1.5;" width="99" x="189.5" y="205.5"/><ellipse cx="207.65" cy="221.5" fill="#ADD1B2" rx="11" ry="11" style="stroke: #A80036; stroke-width: 1.0;"/><path d="M210.6188,227.1406 Q210.0406,227.4375 209.4,227.5781 Q208.7594,227.7344 208.0563,227.7344 Q205.5563,227.7344 204.2281,226.0938 Q202.9156,224.4375 202.9156,221.3125 Q202.9156,218.1875 204.2281,216.5313 Q205.5563,214.875 208.0563,214.875 Q208.7594,214.875 209.4,215.0313 Q210.0563,215.1875 210.6188,215.4844 L210.6188,218.2031 Q209.9938,217.625 209.4,217.3594 Q208.8063,217.0781 208.1813,217.0781 Q206.8375,217.0781 206.15,218.1563 Q205.4625,219.2188 205.4625,221.3125 Q205.4625,223.4063 206.15,224.4844 Q206.8375,225.5469 208.1813,225.5469 Q208.8063,225.5469 209.4,225.2813 Q209.9938,225 210.6188,224.4219 L210.6188,227.1406 Z "/><text fill="#000000" font-family="sans-serif" font-size="12" lengthAdjust="spacingAndGlyphs" textLength="60" x="222.35" y="225.6543">Customer</text><line style="stroke: #A80036; stroke-width: 1.5;" x1="190.5" x2="287.5" y1="237.5" y2="237.5"/><rect fill="none" height="6" style="stroke: #C82930; stroke-width: 1.0;" width="6" x="197.5" y="245.5"/><text fill="#000000" font-family="sans-serif" font-size="11" lengthAdjust="spacingAndGlyphs" textLength="45" x="209.5" y="251.7104">Long: id</text><rect fill="none" height="6" style="stroke: #C82930; stroke-width: 1.0;" width="6" x="197.5" y="258.3047"/><text fill="#000000" font-family="sans-serif" font-size="11" lengthAdjust="spacingAndGlyphs" textLength="73" x="209.5" y="264.5151">string: name</text><line style="stroke: #A80036; stroke-width: 1.5;" x1="190.5" x2="287.5" y1="271.1094" y2="271.1094"/><!--MD5=[137afd0f62487719b33146f38799679c]
link Booking to HotelRoom--><path d="M130.26,133.35 C121.95,151.23 112.95,170.59 104.9,187.91 " fill="none" id="Booking-&gt;HotelRoom" style="stroke: #A80036; stroke-width: 1.0;"/><polygon fill="#A80036" points="102.66,192.74,110.0918,186.2772,104.7752,188.2094,102.8429,182.8928,102.66,192.74" style="stroke: #A80036; stroke-width: 1.0;"/><text fill="#000000" font-family="sans-serif" font-size="13" lengthAdjust="spacingAndGlyphs" textLength="7" x="119.9353" y="152.6874">*</text><text fill="#000000" font-family="sans-serif" font-size="13" lengthAdjust="spacingAndGlyphs" textLength="8" x="97.1674" y="182.1068">1</text><!--MD5=[412c5ab8f7e57600e47741f5a9d2102a]
link Booking to Customer--><path d="M188.11,133.35 C198.61,155.68 210.2,180.31 219.67,200.42 " fill="none" id="Booking-&gt;Customer" style="stroke: #A80036; stroke-width: 1.0;"/><polygon fill="#A80036" points="221.9,205.16,221.6796,195.3136,219.7676,200.6375,214.4436,198.7255,221.9,205.16" style="stroke: #A80036; stroke-width: 1.0;"/><text fill="#000000" font-family="sans-serif" font-size="13" lengthAdjust="spacingAndGlyphs" textLength="7" x="183.751" y="152.6874">*</text><text fill="#000000" font-family="sans-serif" font-size="13" lengthAdjust="spacingAndGlyphs" textLength="8" x="210.2734" y="194.565">1</text><!--MD5=[d884d23090072a329519a6f1f04cd660]
@startuml

    class HotelRoom{
        - Long: id
        - int: roomNumber
        - int: maxPeople
        - double: pricePerNight
    }

    class Booking {
        - Long: id
        - Date: bookingDate
        - Date: arrivalDate
        - Date: departureDate
        - HotelRoom: room
        - Customer: customer
    }

    class Customer {
        - Long: id
        - string: name
    }

    Booking "*" - -> "1" HotelRoom
    Booking "*" - -> "1" Customer

@enduml

PlantUML version 1.2019.12(Sun Nov 03 10:24:54 GMT 2019)
(APACHE source distribution)
Java Runtime: OpenJDK Runtime Environment
JVM: OpenJDK 64-Bit Server VM
Java Version: 1.8.0_252-b09
Operating System: Linux
Default Encoding: UTF-8
Language: en
Country: US
--></g></svg>